<svg id="visual" viewBox="0 0 1400 600" width="1400" height="600" xmlns="http://www.w3.org/2000/svg" xmlns:xlink="http://www.w3.org/1999/xlink" version="1.1"><rect x="0" y="0" width="1400" height="600" fill=" #efefef00"></rect><defs><linearGradient id="grad1_0" x1="57.1%" y1="100%" x2="100%" y2="0%"><stop offset="3.333333333333332%" stop-color="#efefef00" stop-opacity="1"></stop><stop offset="96.66666666666667%" stop-color="#efefef00" stop-opacity="1"></stop></linearGradient></defs><defs><linearGradient id="grad2_0" x1="0%" y1="100%" x2="42.9%" y2="0%"><stop offset="3.333333333333332%" stop-color="#efefef00" stop-opacity="1"></stop><stop offset="96.66666666666667%" stop-color="#efefef00" stop-opacity="1"></stop></linearGradient></defs><g transform="translate(1400, 600)"><path d="M-540 0C-538.5 -35.6 -537.1 -71.2 -529.6 -105.3C-522.2 -139.5 -508.7 -172.2 -495.2 -205.1C-481.7 -238.1 -468.1 -271.3 -447.3 -298.9C-426.6 -326.5 -398.6 -348.5 -373.4 -373.4C-348.1 -398.2 -325.7 -426 -296.7 -444C-267.7 -462 -232.2 -470.2 -199 -480.4C-165.8 -490.6 -134.8 -502.7 -102 -513C-69.2 -523.2 -34.6 -531.6 0 -540L0 0Z" fill="rgba(0, 0, 0, 0.405)"></path></g><g transform="translate(0, 0)"><path d="M540 0C541 36.5 542 73 529.6 105.3C517.2 137.7 491.4 166 474.9 196.7C458.3 227.4 451.1 260.6 437.4 292.2C423.6 323.9 403.5 354.1 379 379C354.5 403.9 325.8 423.6 296.7 444C267.6 464.4 238.2 485.4 205.5 496.1C172.8 506.9 136.8 507.3 102 513C67.2 518.6 33.6 529.3 0 540L0 0Z" fill="rgba(0, 0, 0, 0.405)"></path></g></svg>