<svg xmlns="http://www.w3.org/2000/svg" version="1.1" xmlns:xlink="http://www.w3.org/1999/xlink" xmlns:svgjs="http://svgjs.com/svgjs" width="4000" height="864" preserveAspectRatio="none" viewBox="0 0 4000 864"><g mask="url(&quot;#SvgjsMask1242&quot;)" fill="none"><rect width="4000" height="864" x="0" y="0" fill="rgba(0, 0, 0, 1)"></rect><path d="M49 864L913 0L1487.5 0L623.5 864z" fill="url(#SvgjsLinearGradient1243)"></path><path d="M765 864L1629 0L1747.5 0L883.5 864z" fill="url(#SvgjsLinearGradient1243)"></path><path d="M1376 864L2240 0L3225.5 0L2361.5 864z" fill="url(#SvgjsLinearGradient1243)"></path><path d="M2051 864L2915 0L3495.5 0L2631.5 864z" fill="url(#SvgjsLinearGradient1243)"></path><path d="M3896 864L3032 0L2805.5 0L3669.5 864z" fill="url(#SvgjsLinearGradient1244)"></path><path d="M3260 864L2396 0L2172.5 0L3036.5 864z" fill="url(#SvgjsLinearGradient1244)"></path><path d="M2628 864L1764 0L948 0L1812 864z" fill="url(#SvgjsLinearGradient1244)"></path><path d="M2017 864L1153 0L950.5 0L1814.5 864z" fill="url(#SvgjsLinearGradient1244)"></path><path d="M3399.5843545586795 864L4000 263.58435455867937L4000 864z" fill="url(#SvgjsLinearGradient1243)"></path><path d="M0 864L600.4156454413206 864L 0 263.58435455867937z" fill="url(#SvgjsLinearGradient1244)"></path></g><defs><mask id="SvgjsMask1242"><rect width="4000" height="864" fill="#ffffff"></rect></mask><linearGradient x1="0%" y1="100%" x2="100%" y2="0%" id="SvgjsLinearGradient1243"><stop stop-color="black" offset="0"></stop><stop stop-opacity="0" stop-color="black" offset="0.66"></stop></linearGradient><linearGradient x1="100%" y1="100%" x2="0%" y2="0%" id="SvgjsLinearGradient1244"><stop stop-color="black" offset="0"></stop><stop stop-opacity="0" stop-color="black" offset="0.66"></stop></linearGradient></defs></svg>