<svg xmlns="http://www.w3.org/2000/svg" version="1.1" xmlns:xlink="http://www.w3.org/1999/xlink" xmlns:svgjs="http://svgjs.com/svgjs" width="1200" height="200" preserveAspectRatio="none" viewBox="0 0 1200 200"><g mask="url(&quot;#SvgjsMask1123&quot;)" fill="none"><rect width="1200" height="200" x="0" y="0" fill="black"></rect><path d="M -431.27879793690846,42 C -383.28,63 -287.28,135.8 -191.27879793690846,147 C -95.28,158.2 -47.28,98.6 48.72120206309154,98 C 144.72,97.4 192.72,157 288.72120206309154,144 C 384.72,131 432.72,26.8 528.7212020630916,33 C 624.72,39.2 672.72,170.4 768.7212020630916,175 C 864.72,179.6 922.47,70.8 1008.7212020630916,56 C 1094.98,41.2 1161.74,92 1200,101" stroke="#ff000086" stroke-width="2"></path><path d="M -194.2121090783249,82 C -146.21,97.6 -50.21,165.8 45.787890921675114,160 C 141.79,154.2 189.79,51.8 285.7878909216751,53 C 381.79,54.2 429.79,169 525.7878909216752,166 C 621.79,163 669.79,38 765.7878909216752,38 C 861.79,38 909.79,159 1005.7878909216752,166 C 1101.79,173 1206.95,69.6 1245.7878909216752,73 C 1284.63,76.4 1209.16,161 1200,183" stroke="#ff000086" stroke-width="2"></path><path d="M -285.66060211768433,168 C -237.66,150 -141.66,85.4 -45.660602117684306,78 C 50.34,70.6 98.34,137.2 194.3393978823157,131 C 290.34,124.8 338.34,48 434.33939788231567,47 C 530.34,46 578.34,131.4 674.3393978823157,126 C 770.34,120.6 818.34,17.6 914.3393978823157,20 C 1010.34,22.4 1097.21,131.4 1154.3393978823158,138 C 1211.47,144.6 1190.87,70 1200,53" stroke="#eaeaea86" stroke-width="2"></path><path d="M -360.38435803299683,66 C -312.38,77.2 -216.38,130.6 -120.38435803299686,122 C -24.38,113.4 23.62,12 119.61564196700314,23 C 215.62,34 263.62,165.8 359.61564196700317,177 C 455.62,188.2 503.62,90.4 599.6156419670032,79 C 695.62,67.6 743.62,129.4 839.6156419670032,120 C 935.62,110.6 1007.54,32.6 1079.615641967003,32 C 1151.69,31.4 1175.92,100 1200,117" stroke="#eaeaea86" stroke-width="2"></path><path d="M -184.62083804337058,31 C -136.62,48.4 -40.62,104.8 55.37916195662941,118 C 151.38,131.2 199.38,99.6 295.3791619566294,97 C 391.38,94.4 439.38,120 535.3791619566294,105 C 631.38,90 679.38,7.6 775.3791619566294,22 C 871.38,36.4 919.38,172.6 1015.3791619566294,177 C 1111.38,181.4 1218.45,44.8 1255.3791619566293,44 C 1292.3,43.2 1211.08,147.2 1200,173" stroke="#eaeaea86" stroke-width="2"></path><path d="M -92.64538818088428,167 C -44.65,136.6 51.35,23.8 147.35461181911572,15 C 243.35,6.2 291.35,111.6 387.3546118191157,123 C 483.35,134.4 531.35,61.4 627.3546118191157,72 C 723.35,82.6 771.35,183 867.3546118191157,176 C 963.35,169 1011.35,48.6 1107.3546118191157,37 C 1203.35,25.4 1328.83,115.6 1347.3546118191157,118 C 1365.88,120.4 1229.47,62.8 1200,49" stroke="" stroke-width="2"></path></g><defs><mask id="SvgjsMask1123"><rect width="1200" height="200" fill="#ffffff"></rect></mask></defs></svg>