<svg xmlns="http://www.w3.org/2000/svg" version="1.1" xmlns:xlink="http://www.w3.org/1999/xlink" xmlns:svgjs="http://svgjs.com/svgjs" width="500" height="2095" preserveAspectRatio="none" viewBox="0 0 500 2095"><g mask="url(&quot;#SvgjsMask1025&quot;)" fill="none"><rect width="500" height="2095" x="0" y="0" fill="rgba(0, 0, 0, 1)"></rect><path d="M111.529,1896.07C153,1894.169,181.519,1858.085,200.264,1821.043C216.937,1788.095,218.523,1750.616,201.793,1717.697C183.179,1681.07,152.56,1648.569,111.529,1646.438C67.248,1644.138,25.289,1668.822,3.414,1707.392C-18.187,1745.478,-14.28,1791.889,7.489,1829.879C29.392,1868.103,67.52,1898.087,111.529,1896.07" fill="rgba(172, 172, 172, 0.41)" class="triangle-float2"></path><path d="M321.29,1562.776C345.973,1562.812,369.972,1550.374,381.22,1528.403C391.687,1507.957,382.587,1484.932,371.417,1464.861C359.813,1444.01,345.097,1422.353,321.29,1420.717C295.163,1418.921,270.319,1434.138,257.617,1457.041C245.262,1479.318,248.523,1506.404,261.664,1528.227C274.365,1549.318,296.67,1562.74,321.29,1562.776" fill="rgba(172, 172, 172, 0.41)" class="triangle-float3"></path><path d="M381.864,551.656C404.952,551.281,422.721,532.672,432.828,511.91C441.681,493.723,438.791,472.974,428.7,455.444C418.583,437.869,402.133,424.024,381.864,423.378C360.524,422.698,340.508,433.958,329.557,452.286C318.315,471.101,317.738,494.219,327.947,513.614C338.928,534.475,358.292,552.039,381.864,551.656" fill="rgba(172, 172, 172, 0.41)" class="triangle-float3"></path><path d="M453.381,1630.073C469.993,1629.603,485.338,1621.795,494.176,1607.721C503.648,1592.637,507.141,1573.692,498.602,1558.06C489.75,1541.857,471.834,1532.445,453.381,1533.046C435.871,1533.616,421.817,1545.716,412.987,1560.847C404.071,1576.126,399.47,1594.868,408.386,1610.147C417.247,1625.332,435.807,1630.57,453.381,1630.073" fill="rgba(172, 172, 172, 0.41)" class="triangle-float3"></path><path d="M217.349,868.135C248.67,868.373,275.004,847.253,290.731,820.165C306.533,792.949,312.977,758.902,296.244,732.248C280.279,706.817,247.313,701.333,217.349,703.274C191.096,704.975,168.192,719.053,154.373,741.439C139.718,765.179,133.454,794.082,145.872,819.065C159.659,846.802,186.375,867.9,217.349,868.135" fill="rgba(172, 172, 172, 0.41)" class="triangle-float1"></path><path d="M477.906,1534.283C503.239,1533.163,525.289,1517.474,537.017,1494.991C547.907,1474.114,543.692,1450.052,532.709,1429.223C520.75,1406.544,503.486,1384.634,477.906,1382.889C449.701,1380.965,422.692,1396.342,408.413,1420.742C393.994,1445.382,394.092,1476.299,408.995,1500.649C423.296,1524.015,450.538,1535.492,477.906,1534.283" fill="rgba(172, 172, 172, 0.41)" class="triangle-float1"></path><path d="M468.49,731.17C501.543,731.679,536.603,723.249,553.613,694.904C571.015,665.905,565.346,628.836,546.919,600.477C530.073,574.552,499.403,563.4,468.49,563.903C438.559,564.39,410.286,577.611,394.361,602.959C377.326,630.074,371.765,664.627,387.793,692.349C403.807,720.046,436.501,730.677,468.49,731.17" fill="rgba(172, 172, 172, 0.41)" class="triangle-float3"></path><path d="M211.951,351.132C239.104,351.685,258.563,328.203,272.116,304.667C285.635,281.191,296.262,252.521,282.003,229.487C268.195,207.182,238.169,206.595,211.951,207.476C187.767,208.288,161.918,213.104,149.603,233.934C137.12,255.047,144.37,280.644,155.889,302.298C168.364,325.748,185.395,350.591,211.951,351.132" fill="rgba(172, 172, 172, 0.41)" class="triangle-float3"></path><path d="M174.332,564.799C196.937,564.238,216.841,551.661,228.712,532.415C241.28,512.039,248.18,486.006,235.429,465.744C223.211,446.328,197.271,446.251,174.332,445.999C150.726,445.739,123.92,444.708,110.86,464.373C96.83,485.499,101.52,513.796,115.069,535.234C127.71,555.235,150.678,565.386,174.332,564.799" fill="rgba(172, 172, 172, 0.41)" class="triangle-float3"></path><path d="M298.476,2028.828C312.953,2029.021,326.902,2022.936,334.757,2010.774C343.345,1997.476,346.529,1980.362,338.643,1966.636C330.734,1952.869,314.348,1947.244,298.476,1947.623C283.312,1947.985,268.875,1955.225,261.495,1968.476C254.295,1981.404,256.101,1997.211,263.832,2009.829C271.207,2021.865,284.361,2028.64,298.476,2028.828" fill="rgba(172, 172, 172, 0.41)" class="triangle-float2"></path><path d="M479.476,1864.045C510.715,1862.764,539.606,1848.052,555.865,1821.347C572.827,1793.487,577.222,1758.473,560.969,1730.194C544.667,1701.831,512.19,1688.516,479.476,1688.44C446.615,1688.364,414.855,1702.019,397.326,1729.814C378.562,1759.566,373.04,1798.091,391.401,1828.093C409.142,1857.082,445.518,1865.438,479.476,1864.045" fill="rgba(172, 172, 172, 0.41)" class="triangle-float2"></path></g><defs><mask id="SvgjsMask1025"><rect width="500" height="2095" fill="#ffffff"></rect></mask><style>
            @keyframes float1 {
                0%{transform: translate(0, 0)}
                50%{transform: translate(-10px, 0)}
                100%{transform: translate(0, 0)}
            }

            .triangle-float1 {
                animation: float1 5s infinite;
            }

            @keyframes float2 {
                0%{transform: translate(0, 0)}
                50%{transform: translate(-5px, -5px)}
                100%{transform: translate(0, 0)}
            }

            .triangle-float2 {
                animation: float2 4s infinite;
            }

            @keyframes float3 {
                0%{transform: translate(0, 0)}
                50%{transform: translate(0, -10px)}
                100%{transform: translate(0, 0)}
            }

            .triangle-float3 {
                animation: float3 6s infinite;
            }
        </style></defs></svg>