<svg xmlns="http://www.w3.org/2000/svg" version="1.1" xmlns:xlink="http://www.w3.org/1999/xlink" xmlns:svgjs="http://svgjs.com/svgjs" width="500" height="300" preserveAspectRatio="none" viewBox="0 0 500 300"><g mask="url(&quot;#SvgjsMask1057&quot;)" fill="none"><rect width="500" height="300" x="0" y="0" fill="rgba(0, 0, 0, 1)"></rect><path d="M30 300L330 0L396 0L96 300z" fill="url(#SvgjsLinearGradient1058)"></path><path d="M168 300L468 0L499.5 0L199.5 300z" fill="url(#SvgjsLinearGradient1058)"></path><path d="M485 300L185 0L-11.5 0L288.5 300z" fill="url(#SvgjsLinearGradient1059)"></path><path d="M323 300L23 0L-44.5 0L255.5 300z" fill="url(#SvgjsLinearGradient1059)"></path><path d="M268.83778682287965 300L500 68.83778682287965L500 300z" fill="url(#SvgjsLinearGradient1058)"></path><path d="M0 300L231.16221317712035 300L 0 68.83778682287965z" fill="url(#SvgjsLinearGradient1059)"></path></g><defs><mask id="SvgjsMask1057"><rect width="500" height="300" fill="#ffffff"></rect></mask><linearGradient x1="0%" y1="100%" x2="100%" y2="0%" id="SvgjsLinearGradient1058"><stop stop-color="rgba(48, 53, 65, 0.97)" offset="0"></stop><stop stop-opacity="0" stop-color="rgba(48, 53, 65, 0.97)" offset="0.66"></stop></linearGradient><linearGradient x1="100%" y1="100%" x2="0%" y2="0%" id="SvgjsLinearGradient1059"><stop stop-color="rgba(48, 53, 65, 0.97)" offset="0"></stop><stop stop-opacity="0" stop-color="rgba(48, 53, 65, 0.97)" offset="0.66"></stop></linearGradient></defs></svg>