<svg xmlns="http://www.w3.org/2000/svg" version="1.1" xmlns:xlink="http://www.w3.org/1999/xlink" xmlns:svgjs="http://svgjs.com/svgjs" width="370" height="370" preserveAspectRatio="none" viewBox="0 0 370 370"><g mask="url(&quot;#SvgjsMask1269&quot;)" fill="none"><rect width="370" height="370" x="0" y="0" fill="black"></rect><path d="M -500.01385503349235,272 C -426.01,226.4 -278.01,33.4 -130.01385503349235,44 C 17.99,54.6 139.98,308.8 239.98614496650765,325 C 339.99,341.2 344,165 370,125" stroke="#ff000086" stroke-width="2"></path><path d="M -695.5882989516749,320 C -621.59,264 -473.59,41 -325.5882989516749,40 C -177.59,39 -94.71,313.6 44.411701048325085,315 C 183.53,316.4 304.88,100.6 370,47" stroke="#ff000086" stroke-width="2"></path><path d="M -399.5479999038292,181 C -325.55,207.6 -177.55,338 -29.54799990382917,314 C 118.45,290 260.54,86.6 340.4520000961708,61 C 420.36,35.4 364.09,161 370,186" stroke="#eaeaea86" stroke-width="2"></path><path d="M -136.37725190406306,312 C -62.38,262.8 85.62,66.4 233.62274809593694,66 C 381.62,65.6 576.35,312.8 603.6227480959369,310 C 630.9,307.2 416.72,103.6 370,52" stroke="#eaeaea86" stroke-width="2"></path></g><defs><mask id="SvgjsMask1269"><rect width="370" height="370" fill="#ffffff"></rect></mask></defs></svg>